# xmcd
#
# Track frame offsets: 
#        150
#        9838
#        21640
#        32873
#        34247
#        45513
#        57655
#        69980
#        80460
#        83492
#        95003
#        106264
#        117329
#        128546
#        139385
#        150572
#        160904
#        171144
#        184566
#        197977
#        201151
#        212343
#        214042
#        218458
#        224198
#        233673
#        243214
#        252766
#        266317
#        279069
#        291146
#        303183
#        315157
#        325407
#        334526
#
# Disc length: 4579 seconds
#
# Revision: 0
# Processed by: cddbd v1.5.2PL0 Copyright (c) Steve Scherf et al.
# Submitted via: ExactAudioCopy v0.99pb5
#
DISCID=e411e123
DTITLE=The Beatles  - Contemporary Sound - Complete Revisionist Remixe
DTITLE=s D 3
DYEAR=1900
DGENRE=
TTITLE0=Norwegian Wood (love songs dess)
TTITLE1=Norwegian Wood (urt)
TTITLE2=Drive My Car (rarm)
TTITLE3=Drive My Car (ant dvd)
TTITLE4=Drive My Car (rockband)
TTITLE5=Nowhere Man (ysrmm)
TTITLE6=Nowhere Man (yss dledin)
TTITLE7=Think For Yourself (yss dledin)
TTITLE8=The Word (ant dvd)
TTITLE9=Girl (love songs dess)
TTITLE10=I_m Looking Through You (rockband)
TTITLE11=In My Life (imagine laser)
TTITLE12=In My Life (ant dvd)
TTITLE13=If I Needed Someone (rockband)
TTITLE14=Paperback Writer (ant laser-vhs)
TTITLE15=Paperback Writer (ant dvd)
TTITLE16=Paperback Writer (rockband)
TTITLE17=Rain (ant laser-vhs)
TTITLE18=Rain (ant dvd)
TTITLE19=Got To Get You Into My Life (ant dvd)
TTITLE20=Taxman (rockband)
TTITLE21=Taxman (ant dvd)
TTITLE22=Eleanor Rigby (ant dvd)
TTITLE23=I_m Only Sleeping (ant dvd)
TTITLE24=Eleanor Rigby (ysrmm)
TTITLE25=Eleanor Rigby (yss dledin)
TTITLE26=Eleanor Rigby (LOVE)
TTITLE27=Love You To (yss dledin)
TTITLE28=Yellow Submarine (real love cd single)
TTITLE29=Yellow Submarine (ysrmm)
TTITLE30=Yellow Submarine (yss dledin)
TTITLE31=Yellow Submarine (rockband)
TTITLE32=And Your Bird Can Sing tk2 (ant dvd)
TTITLE33=And Your Bird Can Sing (rockband)
TTITLE34=For No One (ant dvd)
EXTD=
EXTT0=
EXTT1=
EXTT2=
EXTT3=
EXTT4=
EXTT5=
EXTT6=
EXTT7=
EXTT8=
EXTT9=
EXTT10=
EXTT11=
EXTT12=
EXTT13=
EXTT14=
EXTT15=
EXTT16=
EXTT17=
EXTT18=
EXTT19=
EXTT20=
EXTT21=
EXTT22=
EXTT23=
EXTT24=
EXTT25=
EXTT26=
EXTT27=
EXTT28=
EXTT29=
EXTT30=
EXTT31=
EXTT32=
EXTT33=
EXTT34=
PLAYORDER=
